<?xml version='1.0' encoding='utf-8'?>
<svg xmlns="http://www.w3.org/2000/svg" data-name="Layer 1" viewBox="0 0 1e3 1e3"> <defs> <style>.cls-1 { fill: #ac5a46; } .cls-2 { fill: #24326e; } .cls-3 { fill: #cf7129; } .cls-4 { fill: #866699; } .cls-5 { fill: #f79619; } .cls-6 { fill: #280c10; } .cls-7 { fill: #401615; } .cls-8 { fill: #aa561e; } .cls-9 { fill: #d68865; } .cls-10 { fill: #e38734; } .cls-11 { fill: #fff; } .cls-12 { fill: #fdc07a; } .cls-13 { fill: #086aac; } .cls-14 { fill: #fdac44; } .cls-15 { fill: #f5eae1; } .cls-16 { fill: #6b4b81; } .cls-17 { fill: #c64358; } .cls-18 { fill: #cf1925; } .cls-19 { fill: #ec711e; } .cls-20 { fill: #a11a22; } .cls-21 { fill: #663b6c; } .cls-22 { fill: #c86f51; } .cls-23 { fill: #fbb622; } .cls-24 { fill: #155189; } .cls-25 { fill: #dd464b; }</style> </defs> <g data-name="Generative Object"> <path class="cls-22" d="M579.53,625.25c-.06.39.07.8,0,1.18-4.51,24.76-52.68,42.74-74.98,41.33-19.05-1.2-61.62-20.4-65.54-41.33-.85-4.56,0-26.66,0-33.06,7.22,2.1,12.1,9.16,19.48,11.81,11.96,4.29,50.32,10.6,62.58,9.45,17.04-1.6,41.44-11.42,55.5-21.25,2.84,2.11-2.68,28.51,2.95,31.88Z"/> <path class="cls-22" d="M409.5,521.34c-1.62-.3-2.83-2.56-4.13-3.54-4.97,2.91,8.39,7.88,10.04,8.27.03,4.12,5.74,11.73,8.27,14.76,39.36,47.28,105.76,52.12,160.59,31.29-2.9,3.26-3.73,1.26-4.72,7.08-13.42,5.2-24.24,17.12-38.38,21.25-37.19,10.87-73.15.14-102.14-23.62-33.45-27.41-52.41-61.93-55.5-105.09-.46-6.49,1.27-35.77-4.13-11.81-7.68-5.63-22.79-34.34-1.77-27.16,1.85,5.08,5.72,11.06,8.27,15.94,1.25-26.93.99-54.06,3.54-80.89,7.34,33.64,3.79,69.29,8.27,103.32,2.26,17.23,8.58,33.25,11.81,50.18Z"/> <path class="cls-7" d="m400.05 301.7c-1.47 10.67-4.09 21.21-5.9 31.88-1.93 11.38-3.63 22.74-4.72 34.24-2.55 26.83-2.29 53.96-3.54 80.89-2.54-4.88-6.41-10.86-8.27-15.94-3.76-10.31-8.31-29.12-10.63-40.15-1.08-5.11-2.76-12.85-3.54-17.71-3.63-22.58-5.46-46.85-3.54-69.67 13.46-1.57 26.65-2.45 40.15-3.54z"/> <path class="cls-7" d="M659.83,305.25c1.73,23.18-.89,46.84-4.72,69.67-.87,5.19-2.39,12.46-3.54,17.71-2.76,12.63-6.28,26.82-10.63,38.97-1.42,3.97-4.14,9.93-5.9,14.17-.31.76.05,3.96-2.36,2.95.99-39.55-1.6-78.63-8.27-117.49-1.73-10.11-4.21-20.51-4.72-30.7,13.27,1.05,26.9,3.18,40.15,4.72Z"/> <path class="cls-9" d="m366.99 392.63c2.32 11.03 6.86 29.83 10.63 40.15-21.02-7.18-5.91 21.53 1.77 27.16 5.4-23.96 3.67 5.32 4.13 11.81-38.19 3.57-65.02-78.45-16.53-79.11z"/> <path class="cls-1" d="M579.53,579.2c-2.25,13.2,1.96,32.45,0,46.05-5.63-3.37-.12-29.77-2.95-31.88-14.06,9.83-38.46,19.65-55.5,21.25-12.26,1.15-50.62-5.16-62.58-9.45-7.38-2.65-12.26-9.71-19.48-11.81,0-5.45.16-11.03,0-16.53,28.99,23.76,64.95,34.48,102.14,23.62,14.14-4.13,24.95-16.05,38.38-21.25Z"/> <path class="cls-7" d="M415.4,526.06c-1.64-.39-15.01-5.36-10.04-8.27,1.3.98,2.51,3.24,4.13,3.54,23.38,4.3,26.86-29.02,43.1-41.33,12.6-9.55,36.6-13.26,50.78-5.9,2.22,1.15,5.18,7,5.9,7.08,1.62.2,4.03-5,5.9-5.9,20.4-9.87,44.87-4.94,59.63,12.4,10.19,11.96,17.88,44.03,39.56,30.11-4.79,11.29-25.39,10.94-35.42,8.27-7.15-1.91-15.23-11.58-21.25-14.17-15.27-6.56-39.79-3.13-48.41-22.44-8.87,19.83-34.11,15.86-50.78,23.62-16.95,7.89-16.59,19.29-43.1,12.99Z"/> <path class="cls-22" d="M619.68,300.52c.52,10.19,2.99,20.59,4.72,30.7-19.12-3.76-37.79-10.39-57.27-12.99-55.74-7.44-120.16-4.12-172.99,15.35,1.81-10.68,4.44-21.22,5.9-31.88,73.98-6.01,145.53-7.07,219.63-1.18Z"/> <path class="cls-22" d="m635.03 445.76c1.76-4.24 4.48-10.2 5.9-14.17l11.81 1.77c2.14 4.41-7.43 26.25-14.76 26.57l-2.95-14.17z"/> <path class="cls-9" d="M624.4,331.23c6.66,38.86,9.26,77.94,8.27,117.49,2.41,1,2.05-2.2,2.36-2.95l2.95,14.17c7.34-.32,16.9-22.16,14.76-26.57l-11.81-1.77c4.35-12.15,7.86-26.34,10.63-38.97,49.29,2.17,22.15,80.85-16.53,80.89,1.39,29.36-12.05,58.36-30.7,80.3-5.77,6.79-15.09,12.7-20.07,18.3-54.83,20.83-121.23,15.98-160.59-31.29-2.53-3.03-8.23-10.64-8.27-14.76,26.51,6.3,26.15-5.1,43.1-12.99,16.67-7.76,41.9-3.78,50.78-23.62,8.62,19.31,33.15,15.88,48.41,22.44,6.03,2.59,14.11,12.26,21.25,14.17,10.03,2.68,30.63,3.02,35.42-8.27-21.67,13.92-29.37-18.15-39.56-30.11-14.76-17.33-39.23-22.26-59.63-12.4-1.87.91-4.29,6.1-5.9,5.9-.72-.09-3.68-5.93-5.9-7.08-14.17-7.36-38.18-3.65-50.78,5.9-16.24,12.31-19.72,45.63-43.1,41.33-3.23-16.93-9.54-32.96-11.81-50.18-4.47-34.03-.93-69.68-8.27-103.32,1.09-11.5,2.79-22.86,4.72-34.24,52.83-19.47,117.25-22.79,172.99-15.35,19.48,2.6,38.15,9.23,57.27,12.99Z"/> <path class="cls-7" d="M443.15,346.58c5.78-.6,28.17-.71,31.88,2.36,4.5,3.72,3.5,11.72-1.18,14.17-9.57,5.01-56.26-3-70.26.59,9.54-9.79,26.08-15.73,39.56-17.12Z"/> <path class="cls-7" d="m549.42 346.58c17.35-3.75 52.53 3.04 65.54 15.94l-66.72 1.77c-8.77-3.5-8.85-15.54 1.18-17.71z"/> <path class="cls-6" d="m427.21 393.81c13.5 4.91 12.13-17.74-1.18-8.27 1.97-16.06 27.56-13.26 30.7 1.77 4.77 22.86-19.99 34.24-29.52 6.49z"/> <path class="cls-6" d="m593.7 385.54c-14.68-9.66-13.91 15.02-1.18 7.08-4.05 26.16-34.68 20.97-29.52-5.31 2.91-14.85 26.89-18.14 30.7-1.77z"/> <path class="cls-15" d="m465.58 515.43c29.54 11.26 57.96 8.69 87.97 1.77-25.68 21.08-64.14 22.42-87.97-1.77z"/> <path class="cls-22" d="m495.1 415.06c4.58 7.41-8.62 34.57-7.68 38.38 2.71 10.95 37.68 10.76 45.46 2.95-3.31 18.49-42.51 15.81-50.18 2.95-6.79-11.38 9.94-31.72 12.4-44.28z"/> <path class="cls-22" d="M491.56,546.13c12.42,4.55,24.54,2.37,37.2.59-9.15,9.4-29.9,11.07-37.2-.59Z"/> <path class="cls-11" d="M427.21,393.81c-.53-1.55-2.3-2.56-2.36-2.95-.46-3.06,1.01-3.91,1.18-5.31,13.31-9.47,14.68,13.17,1.18,8.27Z"/> <path class="cls-11" d="M593.7,385.54c.75,3.21-.87,5.06-1.18,7.08-12.73,7.94-13.5-16.75,1.18-7.08Z"/> <path class="cls-18" d="M881.82,283.99c-5.04,7.9-9.24,12.15-15.35,18.89-88.83-29.52-186.83-40.74-280.44-44.87-110.43-4.87-221.54.64-330.04,20.07-34.72,6.22-69.69,11.78-102.73,24.8-6.65-7.31-10.15-11.54-15.35-20.07,4.11-2.82,9.63-2.93,14.17-4.72,57.93-17.56,118.57-27.94,178.89-34.24,107.4-11.22,224.22-11.71,331.81-2.36,73.57,6.4,149.96,17,219.04,42.51Z"/> <path class="cls-14" d="m866.47 302.89c-8.66 9.55-14.29 14.84-24.8 22.44-86.74-30.08-182.71-40.73-274.54-43.69-103.01-3.33-207.15 2.22-308.19 21.25l-2.95-24.8c108.5-19.44 219.61-24.95 330.04-20.07 93.61 4.13 191.61 15.35 280.44 44.87z"/> <path class="cls-10" d="m255.99 278.09 2.95 24.8c101.04-19.04 205.18-24.58 308.19-21.25 91.83 2.96 187.8 13.61 274.54 43.69-15.4 11.13-29.33 18.3-47.23 24.8 9.33-14.59-21.52-23.66-32.47-27.16-31.47-10.06-69.31-13.9-102.14-17.71-13.25-1.54-26.88-3.67-40.15-4.72-74.1-5.89-145.65-4.82-219.63 1.18-13.49 1.1-26.69 1.98-40.15 3.54-33.52 3.9-68.05 7.64-100.37 17.71l-4.13-20.07-76.16 22.44c-10.34-7.41-17.33-12.92-25.98-22.44 33.04-13.02 68.01-18.58 102.73-24.8z"/> <path class="cls-14" d="M624.4,217.87c5.78.37,13.57-.4,18.89,0,42.47,3.22,87.19,8.67,129.3,15.35,13.75,2.18,118.87,22.83,121.03,28.93-3.03,7.78-7.35,14.85-11.81,21.85-69.08-25.51-145.47-36.11-219.04-42.51-107.59-9.35-224.41-8.86-331.81,2.36-60.32,6.3-120.96,16.68-178.89,34.24,19.67-7.78,40.18-12.86,62.58-17.71,86.45-18.72,177.67-25.84,265.09-28.34,18.68-.53,39.98-1.33,57.86,2.36l1.77-20.07c28.58.47,56.54,1.74,85.02,3.54Z"/> <path class="cls-8" d="m794.44 350.12c-44.2 16.04-92.61 21.18-139.34 24.8 3.83-22.83 6.45-46.48 4.72-69.67 32.83 3.82 70.67 7.65 102.14 17.71 10.95 3.5 41.81 12.57 32.47 27.16z"/> <path class="cls-8" d="M359.9,305.25c-1.92,22.82-.09,47.08,3.54,69.67-46.54-4.13-94.01-8.74-138.16-24.8-9.23-15.76,22.71-23.57,34.24-27.16,32.31-10.07,66.85-13.81,100.37-17.71Z"/> <path class="cls-14" d="m539.38 214.32-1.77 20.07c-17.88-3.69-39.18-2.9-57.86-2.36-87.42 2.5-178.65 9.62-265.09 28.34-1.47-6.87-1.53-14.54-5.9-20.07 54.21-10.82 111.32-18.32 166.5-22.44 54.36-4.05 109.57-4.44 164.13-3.54z"/> <path class="cls-10" d="m208.76 240.3c4.37 5.54 4.44 13.21 5.9 20.07-22.41 4.85-42.91 9.93-62.58 17.71-4.54 1.8-10.06 1.91-14.17 4.72-4.15-6.81-8.35-13.44-11.81-20.66l1.77-1.77c26.69-7.9 53.57-14.62 80.89-20.07z"/> <path class="cls-3" d="m259.53 322.96c-11.53 3.59-43.48 11.4-34.24 27.16-18.32-6.67-30.33-13.54-46.05-24.8l76.16-22.44 4.13 20.07z"/> <path class="cls-14" d="M528.76,63.18c4.12,22.67,23.87,39.75,35.42,59.04l-106.27-2.36c2.97-10.26,3.57-19.35,9.45-28.93,7.57-12.34,22.71-19.33,31.88-30.11,10.7-1.47,19.09-.34,29.52,2.36Z"/> <path class="cls-16" d="M613.78,200.15c.07.04-.44.57,1.18,1.18l9.45,16.53c-28.48-1.8-56.44-3.07-85.02-3.54-54.56-.9-109.77-.51-164.13,3.54.89-4.74,2.19-9.55,3.54-14.17.78-.02,1.58.04,2.36,0-.47,3.86-6.31,11.29-.59,12.99l73.21-3.54c2.98-1.33-2.17-13.25-2.95-17.71l162.95,4.72Z"/> <path class="cls-18" d="M590.16,160.01c.39.03.79-.03,1.18,0l7.08,15.35c-49.89-1.92-100.04-4.96-149.96-2.36-20.64,1.07-41.19,2.43-61.4,7.08,2.46-6.01,5.21-10.88,8.27-16.53,18.54-3.15,37.89-6.17,56.68-7.08,43.03-2.09,95.07.13,138.16,3.54Z"/> <path class="cls-12" d="M601.97,125.76l-35.42-2.36c-.65-.43-1.57-.99-2.36-1.18-11.56-19.29-31.3-36.37-35.42-59.04,32.38,8.4,54.94,36.6,73.21,62.58Z"/> <path class="cls-10" d="M448.46,173c-.19,7.19-.2,14.16,1.18,21.25-21.97.84-47.24,8.33-68.49,9.45-.78.04-1.58-.02-2.36,0,2.37-8.09,5.08-15.82,8.27-23.62,20.21-4.66,40.76-6.01,61.4-7.08Z"/> <path class="cls-10" d="M499.24,60.82c-9.18,10.79-24.31,17.77-31.88,30.11-5.87,9.58-6.47,18.67-9.45,28.93-.11.36.11.82,0,1.18l-38.97,3.54c18.11-26.61,46.39-59.12,80.3-63.76Z"/> <path class="cls-19" d="M454.37,138.75l-2.36,17.71c-18.79.91-38.14,3.94-56.68,7.08,2.81-5.19,6.72-17.03,11.81-20.07.59-.35,3.71-.86,4.72-1.18,11.31-3.55,30.29-2.91,42.51-3.54Z"/> <path class="cls-12" d="M631.49,180.08c3.44,8.85,4.91,15.84,7.08,23.62-5.32-1.74-19.67-.88-23.62-2.36-1.62-.61-1.11-1.14-1.18-1.18-4.32-2.51-11.31-21.35-14.17-23.62l31.88,3.54Z"/> <path class="cls-12" d="M613.78,143.48c3.76,6.27,7.32,12.34,10.63,18.89-10.84,1.13-22.24-1.49-33.06-2.36-.39-.03-.79.03-1.18,0l-10.63-20.07c11.43.87,22.81,2.71,34.24,3.54Z"/> <path class="cls-21" d="M457.91,121.04c-.71,2.43-2.58,12.47-3.54,13.58-5.3,6.09-34.85.61-42.51,7.68-1.01.32-4.14.83-4.72,1.18,2.59-7.09,7.65-12.79,11.81-18.89l38.97-3.54Z"/> <path class="cls-4" d="M601.97,125.76c3.76,5.35,8.49,12.18,11.81,17.71-11.43-.83-22.81-2.68-34.24-3.54-2.97-.23-3.36-1.17-3.54-1.18-1.83-2.29-8.13-14.49-9.45-15.35l35.42,2.36Z"/> <path class="cls-17" d="M624.4,162.37c3.26,6.46,4.57,11.24,7.08,17.71l-31.88-3.54c-.07-.05.17-1.39-1.18-1.18l-7.08-15.35c10.82.87,22.22,3.49,33.06,2.36Z"/> <path class="cls-4" d="M638.57,203.7c.87,3.1,5.58,9.44,4.72,14.17-5.32-.4-13.11.37-18.89,0l-9.45-16.53c3.94,1.48,18.3.62,23.62,2.36Z"/> <path class="cls-16" d="M564.18,122.22c.79.19,1.71.76,2.36,1.18,1.31.86,7.61,13.06,9.45,15.35-37.32-2.32-84.1-1.93-121.62,0-12.21.63-31.2,0-42.51,3.54,7.66-7.06,37.21-1.59,42.51-7.68.97-1.11,2.83-11.15,3.54-13.58.11-.36-.11-.82,0-1.18l106.27,2.36Z"/> <path class="cls-14" d="M598.43,175.36c1.35-.21,1.12,1.13,1.18,1.18,2.86,2.27,9.85,21.11,14.17,23.62l-162.95-4.72c-.01-.08-.87.44-1.18-1.18-1.38-7.09-1.37-14.07-1.18-21.25,49.92-2.59,100.07.44,149.96,2.36Z"/> <path class="cls-21" d="M450.82,195.43c.78,4.46,5.93,16.38,2.95,17.71l-73.21,3.54c-5.72-1.7.12-9.13.59-12.99,21.24-1.12,46.51-8.6,68.49-9.45.32,1.62,1.17,1.1,1.18,1.18Z"/> <path class="cls-14" d="M575.99,138.75c.19.01.57.96,3.54,1.18l10.63,20.07c-43.08-3.41-95.12-5.63-138.16-3.54l2.36-17.71c37.52-1.93,84.31-2.32,121.62,0Z"/> <path class="cls-2" d="M414.22,632.33c-1.1,1.71-1.32,2.63-1.18,4.72.92,14.14,13.27,55.49,17.71,71.44,18.84,67.59,45.01,133.91,78.52,195.43,33.35-59.68,60-123.56,78.52-189.52,3.4-12.12,18.64-68.92,17.71-77.34-.28-2.55-1.32-3.17-1.18-4.72,10.95,2.52,22.12,4.44,33.06,7.08-.23,3.21-1.37,6.44-2.36,9.45-29.89,90.59-58.24,182.14-94.47,270.41-1.39,3.39-3.31,6.86-3.54,10.63-17.07.92-39.64.99-56.68,0-.67-5.43-3.97-10.35-5.9-15.35-32.59-84.28-65.03-178.79-89.74-265.68-.88-3.09-3.03-5.92-2.36-9.45,10.59-2.57,21.28-4.63,31.88-7.08Z"/> <path class="cls-20" d="M753.11,775.21c-10.25,30.45-13.53,64.3-20.07,95.65-59.88,33.78-126.73,55.32-196.02,59.04.24-3.77,2.15-7.23,3.54-10.63,86.93-15.37,163.94-71.26,212.55-144.06Z"/> <path class="cls-20" d="m474.44 914.55c1.93 5 5.23 9.92 5.9 15.35-66.78-3.88-135.86-26.26-193.65-59.04-3.6-31.52-11.11-65.57-21.25-95.65 13.84 16.56 24.2 35.43 38.97 51.37 43.77 47.25 106.63 77.74 170.04 87.97z"/> <path class="cls-13" d="m823.96 803.55-66.13 49c3.08-42.96 22.69-84.67 20.07-128.12 1.85-4.1 3.05-8.79 4.72-12.99 2.5-6.28 5.67-12.13 7.08-18.89 28.86 22.56 39.69 61.21 49.59 95.06-3.79 6.55-10.27 10.67-15.35 15.94z"/> <path class="cls-13" d="M230.01,696.1c2.45,7.04,3.94,10.01,7.08,16.53,1.76,3.65,2.92,8.18,4.72,11.81-2.86,44.05,15.82,86.14,22.44,129.3l-74.39-56.09c-1.26-1.46-7.98-7.51-8.27-8.86,7.29-32.91,20.48-72.67,47.23-95.06-.64,2.42,1.14,2.24,1.18,2.36Z"/> <path class="cls-13" d="M439.02,626.43c3.92,20.93,46.48,40.13,65.54,41.33,22.3,1.41,70.47-16.57,74.98-41.33,8.51.76,16.59,4.02,24.8,5.9-.14,1.55.9,2.17,1.18,4.72-4.48,9.19-10.59,18.65-17.71,25.98s-21.97,18.01-30.7,22.44c-35.87,18.19-57.82,18.18-93.28,0-11.45-5.87-24.26-15.46-33.06-24.8-6.94-7.36-11.82-15.54-17.71-23.62-.14-2.09.08-3.01,1.18-4.72,8.2-1.9,16.36-4.85,24.8-5.9Z"/> <path class="cls-24" d="m265.44 775.21c10.15 30.08 17.65 64.13 21.25 95.65-30.96-17.56-73.66-46.34-96.83-73.21l74.39 56.09c-6.62-43.16-25.3-85.25-22.44-129.3 8.65 17.41 17.26 31.92 23.62 50.78z"/> <path class="cls-24" d="m823.96 803.55c-26.25 27.22-58.18 48.83-90.92 67.31 6.55-31.35 9.82-65.2 20.07-95.65 5.83-17.31 17.36-34.33 24.8-50.78 2.61 43.44-17 85.16-20.07 128.12l66.13-49z"/> <path class="cls-25" d="M382.34,639.42c-.67,3.52,1.48,6.36,2.36,9.45-52.54,13.06-102.5,33.73-147.6,63.76-3.15-6.52-4.63-9.49-7.08-16.53v-3.54c31.38-24.67,111.92-43.33,152.33-53.14Z"/> <path class="cls-25" d="M789.72,692.56c-1.41,6.76-4.59,12.62-7.08,18.89-45.19-29.45-95.19-49.58-147.6-62.58.99-3.01,2.13-6.24,2.36-9.45,40.57,9.79,120.71,28.42,152.33,53.14Z"/> <path class="cls-18" d="m782.63 711.45c-1.67 4.2-2.87 8.89-4.72 12.99-7.44 16.44-18.97 33.46-24.8 50.78-48.61 72.8-125.62 128.69-212.55 144.06 36.22-88.26 64.57-179.82 94.47-270.41 52.41 13.01 102.42 33.14 147.6 62.58z"/> <path class="cls-18" d="m474.44 914.55c-63.41-10.23-126.27-40.72-170.04-87.97-14.76-15.94-25.13-34.8-38.97-51.37-6.36-18.86-14.97-33.37-23.62-50.78-1.8-3.63-2.96-8.15-4.72-11.81 45.1-30.04 95.06-50.7 147.6-63.76 24.71 86.89 57.15 181.4 89.74 265.68z"/> <path class="cls-23" d="M430.75,660.67c-1.24,1.87-1.5,3.7-1.18,5.9,3.79,26.54,21.23,75.55,30.7,102.14,13.58,38.11,30.43,75.75,49,111.59,5.77.62,44.22-95.7,47.82-105.68,10.31-28.58,27.63-77.92,31.88-106.86.05-.34-.98-3.94-1.18-4.72,7.12-7.33,13.23-16.79,17.71-25.98.93,8.42-14.31,65.23-17.71,77.34-18.52,65.96-45.17,129.84-78.52,189.52-33.51-61.51-59.68-127.83-78.52-195.43-4.44-15.94-16.79-57.3-17.71-71.44,5.9,8.08,10.77,16.26,17.71,23.62Z"/> <path class="cls-5" d="M463.81,685.47c-2.42,1.45-.66,6.79,0,8.86,5.61,17.5,15.19,41.95,22.44,59.04,2.45,5.77,20.27,46.3,24.21,45.46l46.64-113.36c8.73-4.42,23.9-15.44,30.7-22.44.2.79,1.23,4.39,1.18,4.72l-79.71,157.05-79.71-158.23c-.32-2.2-.06-4.03,1.18-5.9,8.81,9.34,21.61,18.93,33.06,24.8Z"/> <path class="cls-24" d="m588.98 667.76c-4.25 28.95-21.58 78.28-31.88 106.86-3.6 9.98-42.05 106.3-47.82 105.68-18.58-35.84-35.42-73.48-49-111.59-9.48-26.59-26.91-75.6-30.7-102.14l79.71 158.23 79.71-157.05z"/> <path class="cls-23" d="M557.1,685.47l-46.64,113.36c-3.94.84-21.76-39.69-24.21-45.46-7.25-17.09-16.83-41.54-22.44-59.04-.66-2.06-2.42-7.41,0-8.86,35.46,18.18,57.41,18.19,93.28,0Z"/> <path class="cls-14" d="M510.45,712.63c2.3,19.31,3.62,39.96-1.18,59.04-.97-19.59-2.65-39.59,1.18-59.04Z"/> </g> </svg>